PathFileType	4	(X/Y/Z)	D:\TRACE\v60_Jaco2_6-2-23\BothDRS_Motion1_4-v60.trc
DataRate	CameraRate	NumFrames	NumMarkers	Units	OrigDataRate	OrigDataStartFrame	OrigNumFrames
100.00	100.00	      31	9	mm	100.00	2618	      6979
Frame#	Time	front left toe			Front right toe			aft left toe			aft right toe			Arm			FL body			FR body			AL Body			AR Body			
		X1	Y1	Z1	X2	Y2	Z2	X3	Y3	Z3	X4	Y4	Z4	X5	Y5	Z5	X6	Y6	Z6	X7	Y7	Z7	X8	Y8	Z8	X9	Y9	Z9	

2618	26.170	-60.31685	26.51293	-245.63704	382.80850	26.24424	-330.06128	62.19891	6.25350	334.06039	350.16876	5.03055	353.08035	150.56065	1160.86353	-661.13745	75.92235	589.04163	-416.88525	235.75287	584.91864	-433.26944	169.04587	546.12939	524.12213	325.17361	536.13879	508.60498	
2619	26.180	-60.36241	26.85988	-246.42734	382.36597	25.74450	-332.20285	61.92563	7.13574	334.74640	349.43671	5.36352	352.39410	149.29057	1160.84583	-665.79144	76.08057	589.25116	-419.17889	235.23270	585.95459	-436.06146	171.98759	546.46008	521.31750	327.42136	536.79321	505.33331	
2620	26.190	-57.51223	29.48248	-249.46973	382.38779	24.60395	-332.54083	62.69293	6.36482	333.19315	349.33734	8.75101	350.31866	148.11308	1160.35254	-670.48572	75.02674	590.10278	-421.58896	234.63892	587.06342	-439.72586	174.80414	547.74066	518.71173	330.41962	538.37354	502.13223	
2621	26.200	-51.67159	32.76597	-248.06969	382.35849	23.94931	-332.98950	62.17898	7.46433	331.75833	346.61069	12.00199	353.59726	146.77335	1158.84424	-673.70203	74.91396	591.26959	-423.79028	234.01825	587.54755	-441.44983	176.93651	548.81799	516.01929	332.94952	539.16034	499.28003	
2622	26.210	-45.29924	37.72523	-245.49985	381.23358	23.55886	-333.77618	61.88684	7.60972	332.74481	344.05066	18.69261	355.19421	144.43086	1157.63611	-676.05011	74.43643	591.76892	-425.92770	234.02101	588.18634	-444.05304	178.99049	549.75250	513.93994	335.31686	540.20288	496.71652	
2623	26.220	-42.67344	47.65858	-246.86546	380.78696	23.31484	-333.91516	61.48767	7.60763	332.23309	343.99277	29.42436	353.13052	142.35332	1157.85522	-678.42737	74.25275	591.15393	-427.65158	233.35150	588.22217	-446.21237	180.00722	550.76746	511.80603	337.34445	541.53027	494.30225	
2624	26.230	-42.10486	57.48402	-248.11952	380.09821	22.69957	-333.87601	60.99664	8.21177	332.29446	345.88480	41.97334	349.69763	140.11026	1158.93201	-680.06482	73.80911	590.38501	-429.45859	233.31834	587.54895	-448.12503	181.22285	552.05585	510.53217	337.89822	543.02771	493.14755	
2625	26.240	-43.80341	69.69892	-250.62485	379.22375	22.33298	-334.01279	60.14166	8.46528	332.92447	351.38959	54.52830	344.61191	138.26250	1159.35547	-681.57599	73.99610	589.60284	-430.73471	232.46387	586.23163	-448.82431	181.74724	553.25995	508.57288	338.46475	543.73016	490.88559	
2626	26.250	-45.05675	82.49601	-254.02623	378.57809	22.13918	-334.05267	59.43329	8.46337	332.49271	357.81418	67.63408	340.03360	136.78952	1158.92542	-683.11896	73.56483	588.88556	-432.09537	232.36679	585.82330	-450.68015	182.35440	553.51166	507.07379	339.66379	544.32977	489.40695	
2627	26.260	-45.97619	95.07510	-257.58411	378.13525	21.90685	-334.09705	58.57945	8.36804	332.24796	364.61450	80.26752	334.82828	135.84871	1157.86218	-684.78748	73.46123	588.56232	-433.38687	232.36418	585.69531	-452.36691	182.78389	553.49622	505.77100	339.34348	544.35248	488.15799	
2628	26.270	-46.05781	107.64599	-261.06732	377.49115	21.66495	-334.30209	58.07638	8.29665	332.03479	370.67053	91.96880	329.58087	135.76598	1156.41345	-686.63910	72.79492	588.38928	-434.39249	231.54611	585.32776	-452.78439	182.81163	553.32202	504.84265	339.78351	544.83679	487.74655	
2629	26.280	-44.97259	119.42758	-265.38080	376.44675	21.39747	-334.49756	57.05027	8.65343	332.14252	376.07632	102.95377	323.57565	135.67511	1154.85645	-688.41217	72.66795	587.66138	-435.23148	231.00801	585.02155	-454.66302	183.03529	553.44324	503.76151	340.15314	544.54382	486.12057	
2630	26.290	-44.38522	130.90530	-269.26395	375.80115	21.17043	-334.40536	56.24899	8.81596	331.92987	379.84048	113.24415	317.65018	135.65025	1153.99878	-689.77631	71.68188	587.56195	-436.15988	231.00523	585.20093	-455.48352	183.36066	553.56476	503.42880	339.99799	544.67236	485.05493	
2631	26.300	-43.99498	140.89279	-272.86020	375.28784	20.99220	-334.47037	55.69435	8.80417	331.98505	383.59476	123.80452	312.38333	135.25247	1153.60681	-691.19318	71.20824	586.98505	-436.55280	230.26155	584.68207	-456.21365	183.26852	553.95624	502.71216	339.75989	545.16913	484.79736	
2632	26.310	-43.21060	149.36884	-275.96042	374.27267	20.69998	-334.79306	55.09691	8.95276	332.07669	386.45428	133.61008	307.45407	134.79599	1153.46509	-691.86322	70.49596	586.33948	-437.27042	229.31027	584.24628	-457.79373	182.93814	554.18890	501.66660	339.74728	545.80865	484.28635	
2633	26.320	-42.76880	154.39383	-278.21732	373.41888	20.45724	-334.71909	53.92912	9.36320	331.99786	389.08252	141.15816	302.56201	133.64497	1153.40308	-692.41931	69.64898	585.77625	-437.84094	229.47322	583.49799	-457.44159	182.70477	554.63159	501.04755	340.33493	545.91492	483.04135	
2634	26.330	-44.41448	159.03029	-280.16223	373.10471	20.28856	-334.69904	53.20675	9.50128	331.87213	391.47937	144.96436	298.96820	132.33951	1153.00024	-693.13818	69.73979	585.20483	-438.37021	228.78694	582.88580	-458.19748	182.37404	554.87915	500.98959	339.93900	546.32593	483.11673	
2635	26.340	-44.66716	160.32054	-282.20062	372.18387	19.91285	-335.08426	52.38470	9.73379	331.80133	394.69766	145.69257	296.27463	131.12619	1152.46594	-693.82867	69.48856	585.01129	-438.66046	228.40775	582.65723	-458.45648	181.49268	555.10236	500.52158	338.37115	546.53516	482.58054	
2636	26.350	-44.68368	158.92007	-283.72397	371.29910	19.69584	-335.12518	51.61497	9.97841	331.58813	396.83179	143.21590	293.68381	130.34424	1151.65784	-694.59955	68.79298	584.87122	-438.91843	227.36208	582.07935	-457.75967	180.99570	555.39087	500.09286	337.50372	546.51599	481.96591	
2637	26.360	-44.15994	155.06367	-285.21750	370.77252	19.61958	-334.90793	50.73800	9.98539	331.58746	400.22452	139.62354	291.68051	129.84766	1150.88245	-695.26331	68.80608	584.56488	-438.83206	226.93404	582.07373	-457.91989	180.39085	555.82025	499.77969	336.88477	546.95532	482.38321	
2638	26.370	-43.48460	150.39651	-286.83609	369.51184	19.25408	-335.04480	49.79987	10.15641	331.61356	401.40054	134.83855	289.91162	129.32640	1150.03271	-696.04395	67.19875	584.38678	-439.33948	225.97394	581.49799	-458.22644	179.43428	556.15558	499.82333	336.07095	546.89294	481.76425	
2639	26.380	-42.56272	144.57991	-288.32944	368.87515	18.99980	-335.09930	49.18668	10.15454	331.60727	402.03860	129.14073	288.16364	129.39888	1149.48938	-696.45129	66.66275	584.00037	-439.54675	225.11708	581.14801	-458.66666	178.47090	556.11853	499.68811	335.29883	547.13873	481.69928	
2640	26.390	-41.22877	137.99020	-289.87152	368.35571	18.87697	-335.16409	48.29665	10.24954	331.51443	403.78659	123.03554	286.65903	129.31238	1149.35120	-696.63275	65.94744	583.50165	-439.31409	225.11629	581.27856	-459.70355	177.65588	556.13879	499.84686	334.53784	547.34802	481.51776	
2641	26.400	-41.45823	131.63176	-291.66324	367.15839	18.37034	-335.40900	47.25658	10.62027	331.40546	405.76352	116.09296	284.95041	129.01591	1149.21033	-696.87689	64.87045	583.01233	-439.63470	224.14368	580.69025	-459.31668	176.80240	556.37231	499.69324	333.43674	547.38959	481.43564	
2642	26.410	-41.65445	124.41898	-292.90555	366.42566	18.07326	-335.48901	46.37782	10.86572	331.36716	408.08188	108.24208	282.97888	128.53470	1149.01111	-697.17493	63.99401	582.76831	-439.94153	223.39943	580.20947	-459.51486	175.60925	556.49414	499.32483	332.71759	547.47931	481.36072	
2643	26.420	-41.60174	116.14220	-293.99432	365.96344	17.90732	-335.43805	45.42353	10.91017	331.20404	410.26855	99.90726	280.84863	127.77971	1148.67834	-697.53937	63.52890	582.68146	-439.89590	222.91080	579.76263	-459.40228	174.80653	556.56287	499.34952	331.53452	547.57184	481.54681	
2644	26.430	-41.70204	107.61506	-295.18759	364.76712	17.53367	-335.52805	44.49753	10.90799	331.20340	412.37729	91.48557	278.82898	126.66691	1147.83862	-697.82581	62.84051	582.32745	-439.87668	222.25479	579.74506	-459.52707	173.44980	556.45667	499.45071	330.60431	547.72156	482.11169	
2645	26.440	-41.25447	98.65346	-296.29752	363.89127	17.39081	-335.49026	43.44719	11.00558	331.19168	413.86182	82.90732	277.52060	125.94208	1147.17639	-697.96722	62.02866	582.02081	-439.89807	221.37418	579.52612	-459.46484	172.73010	556.54047	499.49045	329.27936	547.65289	482.00644	
2646	26.450	-40.48784	89.89238	-297.22211	363.30930	17.27521	-335.39731	42.67413	10.98527	330.99152	413.80930	74.36175	276.63486	125.24329	1146.73792	-697.96991	61.51375	581.56372	-439.99893	220.29198	579.25482	-459.82083	171.53214	556.52246	499.59451	328.28632	547.78064	482.31363	
2647	26.460	-40.31621	81.16610	-297.06448	362.11600	16.91907	-335.71521	41.86901	11.20427	330.87302	412.18091	64.65845	276.44360	124.17805	1146.51270	-698.50787	60.60916	581.55811	-439.94632	219.47495	578.91840	-459.70691	170.55191	556.61884	499.61954	327.51175	547.57874	481.69742	
2648	26.470	-41.00139	72.35268	-296.56247	361.33295	16.72621	-335.79587	40.66747	11.76195	330.84637	411.53696	56.82684	277.24884	123.21134	1146.55188	-698.64447	59.41484	581.19983	-439.76517	218.83136	578.63019	-459.46988	169.72034	556.96521	499.60690	326.54196	547.77222	481.64957	
